<svg width="44" height="33" viewBox="0 0 44 33" fill="none" xmlns="http://www.w3.org/2000/svg">
<g clip-path="url(#clip0_26284_3552)">
<path d="M0.046875 15.0041H6.23908C5.43221 14.0331 4.64576 13.0874 3.86025 12.1418C3.88717 12.0967 3.9141 12.0506 3.94103 12.0055C4.71726 12.0055 5.49441 12.0196 6.27064 12.0018C7.12116 11.983 7.60676 11.3052 7.36628 10.5044C7.22236 10.0231 6.82961 9.75895 6.21308 9.75519C5.17872 9.74861 4.14437 9.74297 3.11001 9.75989C2.83146 9.76459 2.69683 9.67905 2.61976 9.40646C2.44706 8.79547 2.24558 8.19294 2.03109 7.50675C2.90017 7.50675 3.69404 7.50675 4.48792 7.50675C5.41828 7.50675 5.95402 7.10726 5.97167 6.40133C5.98931 5.68412 5.4322 5.25455 4.48327 5.25455C3.57519 5.25455 2.66712 5.25455 1.67826 5.25455C1.62905 4.16511 1.56777 3.11045 1.53898 2.05391C1.52784 1.65441 1.78597 1.52376 2.16015 1.567C6.06452 2.01913 9.53434 3.4996 12.5483 6.05542C14.9067 8.05476 16.7563 10.479 18.318 13.1438C18.4294 13.3337 18.6513 13.4587 18.8212 13.6129C18.9624 13.4089 19.1555 13.2228 19.2298 12.9963C19.3143 12.7378 19.3143 12.4435 19.3152 12.1644C19.3208 9.3839 19.3106 6.60343 19.3226 3.82296C19.3301 2.09997 20.5566 0.489775 22.1184 0.109082C24.0627 -0.36561 25.9624 0.731351 26.5548 2.67148C26.5947 2.80307 26.6355 2.93561 26.6885 3.10763C27.772 3.16027 28.864 3.21855 29.9559 3.26367C33.2567 3.40184 36.5566 3.5325 39.8575 3.67068C40.149 3.6829 40.448 3.69042 40.7284 3.75998C41.2846 3.89722 41.6123 4.42549 41.5455 5.0064C41.4833 5.54125 41.0302 5.98398 40.4814 5.99526C39.6216 6.01218 38.7618 5.99996 37.8203 5.99996C38.032 6.33365 38.2029 6.60343 38.3746 6.87226C40.1342 9.63769 41.6504 12.5206 42.5074 15.7147C42.9875 17.5063 43.2549 19.3176 42.8426 21.1685C42.0441 24.747 38.8361 27.1562 35.0933 26.9898C31.7683 26.8422 28.7841 24.0232 28.2994 20.5744C28.0051 18.4773 28.4498 16.4751 29.097 14.5106C30.0181 11.7104 31.4016 9.1395 32.9977 6.68051C33.1295 6.47747 33.2567 6.26973 33.4257 6.0009H33.0441C30.8055 6.0009 28.5668 5.99432 26.3273 6.01218C26.1314 6.01406 25.9178 6.1513 25.747 6.27443C25.3979 6.52635 25.1007 6.86474 24.7303 7.07342C24.0459 7.45787 23.7516 8.00494 23.7572 8.78889C23.773 11.1633 23.7785 13.5377 23.7525 15.9121C23.7358 17.37 23.5056 18.8025 22.9875 20.1721C21.9503 22.9131 19.9215 24.4932 17.1453 25.0976C16.0524 25.3354 14.916 25.3617 13.8008 25.498C13.4545 25.5403 13.0942 25.5742 12.7739 25.7001C10.7516 26.4991 8.73583 27.315 6.72747 28.1488C6.4907 28.2475 6.2595 28.4486 6.1128 28.6639C5.3245 29.8201 4.57519 31.0035 3.78689 32.1597C3.57427 32.4708 3.2725 32.7199 3.01159 32.9982H2.3635C1.37928 32.3909 1.27807 31.8984 1.93267 30.9029C2.48791 30.0588 3.11558 29.2533 3.58448 28.3622C4.3375 26.9296 5.42385 26.0066 6.97631 25.5873C7.62812 25.4116 8.24093 25.0844 8.96052 24.7893C7.29386 24.245 5.82032 23.541 4.4842 22.57C2.50741 21.1328 0.950311 19.3665 0.291072 16.9244C0.202864 16.6002 0.127655 16.2693 0.046875 15.9412C0.046875 15.6291 0.046875 15.3161 0.046875 15.0041ZM35.6253 6.79706C35.3505 7.2116 35.0924 7.54341 34.8946 7.90812C33.8881 9.76271 32.8556 11.6041 31.915 13.4935C31.3654 14.597 31.5046 15.7006 32.3384 16.6678C33.994 18.5901 37.1973 18.6089 38.877 16.7101C39.6643 15.82 39.8575 14.802 39.4313 13.7153C38.474 11.2714 37.1416 9.03234 35.6263 6.798L35.6253 6.79706ZM24.1044 3.7722C24.1147 3.14429 23.6606 2.65268 23.0515 2.63388C22.448 2.61508 21.968 3.08319 21.9429 3.71486C21.9178 4.35875 22.3932 4.87292 23.0181 4.87668C23.6244 4.88044 24.0933 4.40387 24.1035 3.7722H24.1044Z" fill="black"/>
</g>
<defs>
<clipPath id="clip0_26284_3552">
<rect width="43" height="33" fill="white" transform="translate(0.046875)"/>
</clipPath>
</defs>
</svg>
