<?xml version="1.0" encoding="UTF-8"?>
<svg id="Layer_1" data-name="Layer 1" xmlns="http://www.w3.org/2000/svg" viewBox="0 0 102.1 102.66">
  <defs>
    <style>
      .cls-1 {
        stroke-width: 0px;
      }
    </style>
  </defs>
  <path class="cls-1" d="M18.17,40.54c.72-6.07,1.24-11.4,2.02-16.69,1.02-6.93,2.14-13.86,3.46-20.74.22-1.15,1.64-2.08,2.51-3.11.89.89,2.3,1.64,2.59,2.69,1.29,4.67,2.51,9.38,3.27,14.15.89,5.59,1.26,11.26,1.94,17.66.88-1.31,1.45-2.11,1.98-2.95,2.88-4.59,5.72-9.19,8.62-13.76.63-.98,1.41-1.88,2.2-2.74,1.17-1.26,2.4-2.73,4.37-1.83,2.12.96,2.25,3.08,1.87,4.9-1.76,8.25-3.42,16.54-5.65,24.67-2.89,10.52-7.94,19.94-16.13,27.4-1.24,1.13-2.71,2.13-4.24,2.81-2.98,1.34-5.11.72-6.64-2.12-4.95-9.19-10.05-18.31-14.5-27.74-2.47-5.24-3.76-11.04-5.53-16.61-.24-.75-.47-1.72-.2-2.38.54-1.33,1.17-2.95,2.27-3.59.67-.39,2.73.48,3.39,1.36,2.96,3.96,5.68,8.12,8.43,12.24,1.27,1.9,2.42,3.87,3.96,6.35Z"/>
  <path class="cls-1" d="M75.11,73.06c.69-2.52,1.47-5.03,2.07-7.58.98-4.2,1.8-8.44,2.79-12.64.37-1.57.97-3.59,3-3.11,1.15.27,2.58,1.82,2.82,3.01,1.06,5.18,1.73,10.44,2.6,16.04,1.92-3.16,3.64-6.17,5.54-9.07,1.28-1.94,2.2-5,5.31-4.01,2.93.93,2.99,4.17,2.81,6.46-.37,4.71-.77,9.66-2.5,13.98-2.9,7.25-6.74,14.12-10.42,21.04-.84,1.59-2.45,2.91-3.98,3.96-3.96,2.7-8.13,1.77-10.62-2.31-6.2-10.16-10.85-20.93-12.44-32.84-.19-1.42-.28-2.95.06-4.31.25-1.01,1.15-2.35,2-2.56.78-.2,2.26.67,2.8,1.48,1.6,2.39,2.88,5,4.31,7.5.96,1.68,1.97,3.34,2.96,5.01.3-.01.6-.02.9-.03Z"/>
</svg>