{
	"asset":{
		"generator":"Khronos glTF Blender I/O v4.0.44",
		"version":"2.0"
	},
	"extensionsUsed":[
		"KHR_materials_emissive_strength"
	],
	"scene":0,
	"scenes":[
		{
			"name":"Scene",
			"nodes":[
				0,
				1,
				2,
				3,
				4,
				5,
				6,
				7,
				8,
				9,
				10,
				11,
				12,
				13,
				14
			]
		}
	],
	"nodes":[
		{
			"mesh":0,
			"name":"Cylinder.006",
			"scale":[
				1.9221291542053223,
				1.9221291542053223,
				1.9221291542053223
			],
			"translation":[
				0.8857405185699463,
				2.049384593963623,
				-0.06716394424438477
			]
		},
		{
			"mesh":1,
			"name":"Cone.001",
			"rotation":[
				0.6859350800514221,
				0.2793642282485962,
				0.3046414256095886,
				0.5988675355911255
			],
			"scale":[
				0.11547169834375381,
				0.11547171324491501,
				0.11547169834375381
			],
			"translation":[
				1.1764423847198486,
				5.6825361251831055,
				0.47823095321655273
			]
		},
		{
			"mesh":2,
			"name":"Cube.008",
			"scale":[
				0.6291489601135254,
				0.5743066668510437,
				0.648650586605072
			],
			"translation":[
				1.6485644578933716,
				4.646695137023926,
				-0.1408471167087555
			]
		},
		{
			"mesh":3,
			"name":"Cube.007",
			"scale":[
				0.16232521831989288,
				0.17148947715759277,
				0.06376655399799347
			],
			"translation":[
				1.2485644817352295,
				4.1384053230285645,
				0.99853515625
			]
		},
		{
			"mesh":4,
			"name":"Cube.006",
			"scale":[
				0.16232521831989288,
				0.17148947715759277,
				0.06376655399799347
			],
			"translation":[
				2.0485644340515137,
				4.1384053230285645,
				0.99853515625
			]
		},
		{
			"mesh":5,
			"name":"Cylinder.003",
			"rotation":[
				0.4975614547729492,
				0.4998188614845276,
				0.5001692771911621,
				0.5024386048316956
			],
			"scale":[
				-0.03707754984498024,
				-0.11503680050373077,
				-0.040832240134477615
			],
			"translation":[
				1.2485644817352295,
				4.019622802734375,
				0.6782308220863342
			]
		},
		{
			"mesh":6,
			"name":"Cylinder.002",
			"rotation":[
				0.4975614547729492,
				0.4998188614845276,
				0.5001692771911621,
				0.5024386048316956
			],
			"scale":[
				-0.03707754984498024,
				-0.11503680050373077,
				-0.040832240134477615
			],
			"translation":[
				2.0485644340515137,
				4.019622802734375,
				0.6782308220863342
			]
		},
		{
			"mesh":7,
			"name":"Light.001",
			"scale":[
				0.5230324268341064,
				0.4774402379989624,
				0.5392447710037231
			],
			"translation":[
				1.6485644578933716,
				4.646695137023926,
				-0.1408471167087555
			]
		},
		{
			"mesh":8,
			"name":"Cone.002",
			"rotation":[
				0.6859350800514221,
				0.2793642282485962,
				0.3046414256095886,
				0.5988675355911255
			],
			"scale":[
				0.11547169834375381,
				0.11547171324491501,
				0.11547169834375381
			],
			"translation":[
				0.19486641883850098,
				5.662013053894043,
				0.6087063550949097
			]
		},
		{
			"mesh":9,
			"name":"Cube.012",
			"scale":[
				0.6291489601135254,
				0.5743066668510437,
				0.648650586605072
			],
			"translation":[
				0.0004238527617417276,
				4.674292087554932,
				-0.021775081753730774
			]
		},
		{
			"mesh":10,
			"name":"Cube.011",
			"scale":[
				0.16232521831989288,
				0.17148947715759277,
				0.06376655399799347
			],
			"translation":[
				-0.3995761573314667,
				4.1660027503967285,
				1.1176072359085083
			]
		},
		{
			"mesh":11,
			"name":"Cube.010",
			"scale":[
				0.16232521831989288,
				0.17148947715759277,
				0.06376655399799347
			],
			"translation":[
				0.40042388439178467,
				4.1660027503967285,
				1.1176072359085083
			]
		},
		{
			"mesh":12,
			"name":"Cylinder.005",
			"rotation":[
				0.4975614547729492,
				0.4998188614845276,
				0.5001692771911621,
				0.5024386048316956
			],
			"scale":[
				-0.03707754984498024,
				-0.11503680050373077,
				-0.040832240134477615
			],
			"translation":[
				-0.3995761573314667,
				4.047219753265381,
				0.7973028421401978
			]
		},
		{
			"mesh":13,
			"name":"Cylinder.004",
			"rotation":[
				0.4975614547729492,
				0.4998188614845276,
				0.5001692771911621,
				0.5024386048316956
			],
			"scale":[
				-0.03707754984498024,
				-0.11503680050373077,
				-0.040832240134477615
			],
			"translation":[
				0.40042388439178467,
				4.047219753265381,
				0.7973028421401978
			]
		},
		{
			"mesh":14,
			"name":"Light",
			"scale":[
				0.539205014705658,
				0.49220308661460876,
				0.5559186935424805
			],
			"translation":[
				0.0004238527617417276,
				4.674292087554932,
				-0.021775081753730774
			]
		}
	],
	"materials":[
		{
			"doubleSided":true,
			"name":"Wood.001",
			"pbrMetallicRoughness":{
				"metallicFactor":0
			}
		},
		{
			"doubleSided":true,
			"name":"Material.005",
			"pbrMetallicRoughness":{
				"metallicFactor":0,
				"roughnessFactor":0.41363635659217834
			}
		},
		{
			"doubleSided":true,
			"name":"wood.001",
			"pbrMetallicRoughness":{
				"metallicFactor":0
			}
		},
		{
			"doubleSided":true,
			"name":"wood.001",
			"pbrMetallicRoughness":{
				"metallicFactor":0
			}
		},
		{
			"doubleSided":true,
			"emissiveFactor":[
				1,
				0.8072249293327332,
				0.40706005692481995
			],
			"extensions":{
				"KHR_materials_emissive_strength":{
					"emissiveStrength":5
				}
			},
			"name":"Light",
			"pbrMetallicRoughness":{
				"baseColorFactor":[
					0,
					0,
					0,
					1
				]
			}
		},
		{
			"doubleSided":true,
			"name":"Wood.002",
			"pbrMetallicRoughness":{
				"metallicFactor":0
			}
		},
		{
			"doubleSided":true,
			"name":"wood.002",
			"pbrMetallicRoughness":{
				"metallicFactor":0
			}
		},
		{
			"doubleSided":true,
			"name":"wood.002",
			"pbrMetallicRoughness":{
				"metallicFactor":0
			}
		}
	],
	"meshes":[
		{
			"name":"Cylinder.008",
			"primitives":[
				{
					"attributes":{
						"POSITION":0,
						"NORMAL":1,
						"TEXCOORD_0":2
					},
					"indices":3
				}
			]
		},
		{
			"name":"Cone.001",
			"primitives":[
				{
					"attributes":{
						"POSITION":4,
						"NORMAL":5,
						"TEXCOORD_0":6
					},
					"indices":7,
					"material":0
				}
			]
		},
		{
			"name":"Cube.008",
			"primitives":[
				{
					"attributes":{
						"POSITION":8,
						"NORMAL":9,
						"TEXCOORD_0":10
					},
					"indices":11,
					"material":1
				}
			]
		},
		{
			"name":"Cube.007",
			"primitives":[
				{
					"attributes":{
						"POSITION":12,
						"NORMAL":13,
						"TEXCOORD_0":14
					},
					"indices":15,
					"material":2
				}
			]
		},
		{
			"name":"Cube.006",
			"primitives":[
				{
					"attributes":{
						"POSITION":16,
						"NORMAL":17,
						"TEXCOORD_0":18
					},
					"indices":19,
					"material":2
				}
			]
		},
		{
			"name":"Cylinder.003",
			"primitives":[
				{
					"attributes":{
						"POSITION":20,
						"NORMAL":21,
						"TEXCOORD_0":22
					},
					"indices":23,
					"material":0
				}
			]
		},
		{
			"name":"Cylinder.002",
			"primitives":[
				{
					"attributes":{
						"POSITION":24,
						"NORMAL":25,
						"TEXCOORD_0":26
					},
					"indices":23,
					"material":3
				}
			]
		},
		{
			"name":"Cube.014",
			"primitives":[
				{
					"attributes":{
						"POSITION":27,
						"NORMAL":28,
						"TEXCOORD_0":29
					},
					"indices":30,
					"material":4
				}
			]
		},
		{
			"name":"Cone.002",
			"primitives":[
				{
					"attributes":{
						"POSITION":31,
						"NORMAL":32,
						"TEXCOORD_0":33
					},
					"indices":7,
					"material":5
				}
			]
		},
		{
			"name":"Cube.012",
			"primitives":[
				{
					"attributes":{
						"POSITION":34,
						"NORMAL":35,
						"TEXCOORD_0":36
					},
					"indices":37,
					"material":1
				}
			]
		},
		{
			"name":"Cube.011",
			"primitives":[
				{
					"attributes":{
						"POSITION":38,
						"NORMAL":39,
						"TEXCOORD_0":40
					},
					"indices":15,
					"material":6
				}
			]
		},
		{
			"name":"Cube.010",
			"primitives":[
				{
					"attributes":{
						"POSITION":41,
						"NORMAL":42,
						"TEXCOORD_0":43
					},
					"indices":15,
					"material":6
				}
			]
		},
		{
			"name":"Cylinder.005",
			"primitives":[
				{
					"attributes":{
						"POSITION":44,
						"NORMAL":45,
						"TEXCOORD_0":46
					},
					"indices":23,
					"material":5
				}
			]
		},
		{
			"name":"Cylinder.004",
			"primitives":[
				{
					"attributes":{
						"POSITION":47,
						"NORMAL":48,
						"TEXCOORD_0":49
					},
					"indices":23,
					"material":7
				}
			]
		},
		{
			"name":"Cube.013",
			"primitives":[
				{
					"attributes":{
						"POSITION":50,
						"NORMAL":51,
						"TEXCOORD_0":52
					},
					"indices":53,
					"material":4
				}
			]
		}
	],
	"accessors":[
		{
			"bufferView":0,
			"componentType":5126,
			"count":300,
			"max":[
				0.9980267286300659,
				1,
				1
			],
			"min":[
				-0.9980267286300659,
				-1,
				-1
			],
			"type":"VEC3"
		},
		{
			"bufferView":1,
			"componentType":5126,
			"count":300,
			"type":"VEC3"
		},
		{
			"bufferView":2,
			"componentType":5126,
			"count":300,
			"type":"VEC2"
		},
		{
			"bufferView":3,
			"componentType":5123,
			"count":588,
			"type":"SCALAR"
		},
		{
			"bufferView":4,
			"componentType":5126,
			"count":128,
			"max":[
				1,
				1,
				1
			],
			"min":[
				-1,
				-1,
				-1
			],
			"type":"VEC3"
		},
		{
			"bufferView":5,
			"componentType":5126,
			"count":128,
			"type":"VEC3"
		},
		{
			"bufferView":6,
			"componentType":5126,
			"count":128,
			"type":"VEC2"
		},
		{
			"bufferView":7,
			"componentType":5123,
			"count":186,
			"type":"SCALAR"
		},
		{
			"bufferView":8,
			"componentType":5126,
			"count":73724,
			"max":[
				1.3751158714294434,
				2.8170485496520996,
				1.60098397731781
			],
			"min":[
				-1.5480074882507324,
				-1.3879464864730835,
				-1.3589907884597778
			],
			"type":"VEC3"
		},
		{
			"bufferView":9,
			"componentType":5126,
			"count":73724,
			"type":"VEC3"
		},
		{
			"bufferView":10,
			"componentType":5126,
			"count":73724,
			"type":"VEC2"
		},
		{
			"bufferView":11,
			"componentType":5125,
			"count":110592,
			"type":"SCALAR"
		},
		{
			"bufferView":12,
			"componentType":5126,
			"count":32258,
			"max":[
				0.8594930768013,
				0.9415368437767029,
				0.6468644142150879
			],
			"min":[
				-0.6783525943756104,
				-0.9662737250328064,
				-0.6468643546104431
			],
			"type":"VEC3"
		},
		{
			"bufferView":13,
			"componentType":5126,
			"count":32258,
			"type":"VEC3"
		},
		{
			"bufferView":14,
			"componentType":5126,
			"count":32258,
			"type":"VEC2"
		},
		{
			"bufferView":15,
			"componentType":5123,
			"count":49152,
			"type":"SCALAR"
		},
		{
			"bufferView":16,
			"componentType":5126,
			"count":32768,
			"max":[
				0.8590120077133179,
				0.9415368437767029,
				0.6468508839607239
			],
			"min":[
				-0.6776630282402039,
				-0.9662737250328064,
				-0.6468780636787415
			],
			"type":"VEC3"
		},
		{
			"bufferView":17,
			"componentType":5126,
			"count":32768,
			"type":"VEC3"
		},
		{
			"bufferView":18,
			"componentType":5126,
			"count":32768,
			"type":"VEC2"
		},
		{
			"bufferView":19,
			"componentType":5123,
			"count":49152,
			"type":"SCALAR"
		},
		{
			"bufferView":20,
			"componentType":5126,
			"count":320,
			"max":[
				1.0244170427322388,
				1,
				1.006729245185852
			],
			"min":[
				-1.4364314079284668,
				-2.738532543182373,
				-1.0256047248840332
			],
			"type":"VEC3"
		},
		{
			"bufferView":21,
			"componentType":5126,
			"count":320,
			"type":"VEC3"
		},
		{
			"bufferView":22,
			"componentType":5126,
			"count":320,
			"type":"VEC2"
		},
		{
			"bufferView":23,
			"componentType":5123,
			"count":564,
			"type":"SCALAR"
		},
		{
			"bufferView":24,
			"componentType":5126,
			"count":320,
			"max":[
				1.0244170427322388,
				1,
				1.006729245185852
			],
			"min":[
				-1.4364314079284668,
				-2.738532543182373,
				-1.0256047248840332
			],
			"type":"VEC3"
		},
		{
			"bufferView":25,
			"componentType":5126,
			"count":320,
			"type":"VEC3"
		},
		{
			"bufferView":26,
			"componentType":5126,
			"count":320,
			"type":"VEC2"
		},
		{
			"bufferView":27,
			"componentType":5126,
			"count":73720,
			"max":[
				1.3751158714294434,
				2.8300094604492188,
				1.60098397731781
			],
			"min":[
				-1.6205098628997803,
				-1.3879464864730835,
				-1.3589907884597778
			],
			"type":"VEC3"
		},
		{
			"bufferView":28,
			"componentType":5126,
			"count":73720,
			"type":"VEC3"
		},
		{
			"bufferView":29,
			"componentType":5126,
			"count":73720,
			"type":"VEC2"
		},
		{
			"bufferView":30,
			"componentType":5125,
			"count":110592,
			"type":"SCALAR"
		},
		{
			"bufferView":31,
			"componentType":5126,
			"count":128,
			"max":[
				1,
				1,
				1
			],
			"min":[
				-1,
				-1,
				-1
			],
			"type":"VEC3"
		},
		{
			"bufferView":32,
			"componentType":5126,
			"count":128,
			"type":"VEC3"
		},
		{
			"bufferView":33,
			"componentType":5126,
			"count":128,
			"type":"VEC2"
		},
		{
			"bufferView":34,
			"componentType":5126,
			"count":73722,
			"max":[
				1.4912911653518677,
				2.811636209487915,
				1.5847738981246948
			],
			"min":[
				-1.3895111083984375,
				-1.3802109956741333,
				-1.3783951997756958
			],
			"type":"VEC3"
		},
		{
			"bufferView":35,
			"componentType":5126,
			"count":73722,
			"type":"VEC3"
		},
		{
			"bufferView":36,
			"componentType":5126,
			"count":73722,
			"type":"VEC2"
		},
		{
			"bufferView":37,
			"componentType":5125,
			"count":110592,
			"type":"SCALAR"
		},
		{
			"bufferView":38,
			"componentType":5126,
			"count":32258,
			"max":[
				0.8594930768013,
				0.9415368437767029,
				0.6468644142150879
			],
			"min":[
				-0.6783525943756104,
				-0.9662737250328064,
				-0.6468643546104431
			],
			"type":"VEC3"
		},
		{
			"bufferView":39,
			"componentType":5126,
			"count":32258,
			"type":"VEC3"
		},
		{
			"bufferView":40,
			"componentType":5126,
			"count":32258,
			"type":"VEC2"
		},
		{
			"bufferView":41,
			"componentType":5126,
			"count":32258,
			"max":[
				0.8594930768013,
				0.9415368437767029,
				0.6468644142150879
			],
			"min":[
				-0.6783525943756104,
				-0.9662737250328064,
				-0.6468643546104431
			],
			"type":"VEC3"
		},
		{
			"bufferView":42,
			"componentType":5126,
			"count":32258,
			"type":"VEC3"
		},
		{
			"bufferView":43,
			"componentType":5126,
			"count":32258,
			"type":"VEC2"
		},
		{
			"bufferView":44,
			"componentType":5126,
			"count":320,
			"max":[
				1.0244170427322388,
				1,
				1.006729245185852
			],
			"min":[
				-1.4364314079284668,
				-2.738532543182373,
				-1.0256047248840332
			],
			"type":"VEC3"
		},
		{
			"bufferView":45,
			"componentType":5126,
			"count":320,
			"type":"VEC3"
		},
		{
			"bufferView":46,
			"componentType":5126,
			"count":320,
			"type":"VEC2"
		},
		{
			"bufferView":47,
			"componentType":5126,
			"count":320,
			"max":[
				1.0244170427322388,
				1,
				1.006729245185852
			],
			"min":[
				-1.4364314079284668,
				-2.738532543182373,
				-1.0256047248840332
			],
			"type":"VEC3"
		},
		{
			"bufferView":48,
			"componentType":5126,
			"count":320,
			"type":"VEC3"
		},
		{
			"bufferView":49,
			"componentType":5126,
			"count":320,
			"type":"VEC2"
		},
		{
			"bufferView":50,
			"componentType":5126,
			"count":73728,
			"max":[
				1.4912911653518677,
				2.813450336456299,
				1.5847738981246948
			],
			"min":[
				-1.3895111083984375,
				-1.3802109956741333,
				-1.3783951997756958
			],
			"type":"VEC3"
		},
		{
			"bufferView":51,
			"componentType":5126,
			"count":73728,
			"type":"VEC3"
		},
		{
			"bufferView":52,
			"componentType":5126,
			"count":73728,
			"type":"VEC2"
		},
		{
			"bufferView":53,
			"componentType":5125,
			"count":110592,
			"type":"SCALAR"
		}
	],
	"bufferViews":[
		{
			"buffer":0,
			"byteLength":3600,
			"byteOffset":0,
			"target":34962
		},
		{
			"buffer":0,
			"byteLength":3600,
			"byteOffset":3600,
			"target":34962
		},
		{
			"buffer":0,
			"byteLength":2400,
			"byteOffset":7200,
			"target":34962
		},
		{
			"buffer":0,
			"byteLength":1176,
			"byteOffset":9600,
			"target":34963
		},
		{
			"buffer":0,
			"byteLength":1536,
			"byteOffset":10776,
			"target":34962
		},
		{
			"buffer":0,
			"byteLength":1536,
			"byteOffset":12312,
			"target":34962
		},
		{
			"buffer":0,
			"byteLength":1024,
			"byteOffset":13848,
			"target":34962
		},
		{
			"buffer":0,
			"byteLength":372,
			"byteOffset":14872,
			"target":34963
		},
		{
			"buffer":0,
			"byteLength":884688,
			"byteOffset":15244,
			"target":34962
		},
		{
			"buffer":0,
			"byteLength":884688,
			"byteOffset":899932,
			"target":34962
		},
		{
			"buffer":0,
			"byteLength":589792,
			"byteOffset":1784620,
			"target":34962
		},
		{
			"buffer":0,
			"byteLength":442368,
			"byteOffset":2374412,
			"target":34963
		},
		{
			"buffer":0,
			"byteLength":387096,
			"byteOffset":2816780,
			"target":34962
		},
		{
			"buffer":0,
			"byteLength":387096,
			"byteOffset":3203876,
			"target":34962
		},
		{
			"buffer":0,
			"byteLength":258064,
			"byteOffset":3590972,
			"target":34962
		},
		{
			"buffer":0,
			"byteLength":98304,
			"byteOffset":3849036,
			"target":34963
		},
		{
			"buffer":0,
			"byteLength":393216,
			"byteOffset":3947340,
			"target":34962
		},
		{
			"buffer":0,
			"byteLength":393216,
			"byteOffset":4340556,
			"target":34962
		},
		{
			"buffer":0,
			"byteLength":262144,
			"byteOffset":4733772,
			"target":34962
		},
		{
			"buffer":0,
			"byteLength":98304,
			"byteOffset":4995916,
			"target":34963
		},
		{
			"buffer":0,
			"byteLength":3840,
			"byteOffset":5094220,
			"target":34962
		},
		{
			"buffer":0,
			"byteLength":3840,
			"byteOffset":5098060,
			"target":34962
		},
		{
			"buffer":0,
			"byteLength":2560,
			"byteOffset":5101900,
			"target":34962
		},
		{
			"buffer":0,
			"byteLength":1128,
			"byteOffset":5104460,
			"target":34963
		},
		{
			"buffer":0,
			"byteLength":3840,
			"byteOffset":5105588,
			"target":34962
		},
		{
			"buffer":0,
			"byteLength":3840,
			"byteOffset":5109428,
			"target":34962
		},
		{
			"buffer":0,
			"byteLength":2560,
			"byteOffset":5113268,
			"target":34962
		},
		{
			"buffer":0,
			"byteLength":884640,
			"byteOffset":5115828,
			"target":34962
		},
		{
			"buffer":0,
			"byteLength":884640,
			"byteOffset":6000468,
			"target":34962
		},
		{
			"buffer":0,
			"byteLength":589760,
			"byteOffset":6885108,
			"target":34962
		},
		{
			"buffer":0,
			"byteLength":442368,
			"byteOffset":7474868,
			"target":34963
		},
		{
			"buffer":0,
			"byteLength":1536,
			"byteOffset":7917236,
			"target":34962
		},
		{
			"buffer":0,
			"byteLength":1536,
			"byteOffset":7918772,
			"target":34962
		},
		{
			"buffer":0,
			"byteLength":1024,
			"byteOffset":7920308,
			"target":34962
		},
		{
			"buffer":0,
			"byteLength":884664,
			"byteOffset":7921332,
			"target":34962
		},
		{
			"buffer":0,
			"byteLength":884664,
			"byteOffset":8805996,
			"target":34962
		},
		{
			"buffer":0,
			"byteLength":589776,
			"byteOffset":9690660,
			"target":34962
		},
		{
			"buffer":0,
			"byteLength":442368,
			"byteOffset":10280436,
			"target":34963
		},
		{
			"buffer":0,
			"byteLength":387096,
			"byteOffset":10722804,
			"target":34962
		},
		{
			"buffer":0,
			"byteLength":387096,
			"byteOffset":11109900,
			"target":34962
		},
		{
			"buffer":0,
			"byteLength":258064,
			"byteOffset":11496996,
			"target":34962
		},
		{
			"buffer":0,
			"byteLength":387096,
			"byteOffset":11755060,
			"target":34962
		},
		{
			"buffer":0,
			"byteLength":387096,
			"byteOffset":12142156,
			"target":34962
		},
		{
			"buffer":0,
			"byteLength":258064,
			"byteOffset":12529252,
			"target":34962
		},
		{
			"buffer":0,
			"byteLength":3840,
			"byteOffset":12787316,
			"target":34962
		},
		{
			"buffer":0,
			"byteLength":3840,
			"byteOffset":12791156,
			"target":34962
		},
		{
			"buffer":0,
			"byteLength":2560,
			"byteOffset":12794996,
			"target":34962
		},
		{
			"buffer":0,
			"byteLength":3840,
			"byteOffset":12797556,
			"target":34962
		},
		{
			"buffer":0,
			"byteLength":3840,
			"byteOffset":12801396,
			"target":34962
		},
		{
			"buffer":0,
			"byteLength":2560,
			"byteOffset":12805236,
			"target":34962
		},
		{
			"buffer":0,
			"byteLength":884736,
			"byteOffset":12807796,
			"target":34962
		},
		{
			"buffer":0,
			"byteLength":884736,
			"byteOffset":13692532,
			"target":34962
		},
		{
			"buffer":0,
			"byteLength":589824,
			"byteOffset":14577268,
			"target":34962
		},
		{
			"buffer":0,
			"byteLength":442368,
			"byteOffset":15167092,
			"target":34963
		}
	],
	"buffers":[
		{
			"byteLength":15609460,
			"uri":"bird1.bin"
		}
	]
}
