{
	"asset":{
		"generator":"Khronos glTF Blender I/O v4.0.44",
		"version":"2.0"
	},
	"extensionsUsed":[
		"KHR_materials_emissive_strength"
	],
	"scene":0,
	"scenes":[
		{
			"name":"Scene",
			"nodes":[
				0,
				1,
				2,
				3,
				4,
				5,
				6,
				7,
				8,
				9,
				10,
				11,
				12,
				13,
				14
			]
		}
	],
	"nodes":[
		{
			"mesh":0,
			"name":"Cone.003",
			"rotation":[
				0.6859350800514221,
				0.2793642282485962,
				0.3046414256095886,
				0.5988675355911255
			],
			"translation":[
				-0.005133584141731262,
				-0.037986934185028076,
				0.008706368505954742
			]
		},
		{
			"mesh":1,
			"name":"Cone.004",
			"rotation":[
				0.6859350800514221,
				0.2793642282485962,
				0.3046414256095886,
				0.5988675355911255
			]
		},
		{
			"mesh":2,
			"name":"Body.001"
		},
		{
			"mesh":3,
			"name":"Cube.009"
		},
		{
			"mesh":4,
			"name":"Cube.013"
		},
		{
			"mesh":5,
			"name":"Body"
		},
		{
			"mesh":6,
			"name":"Cube.015"
		},
		{
			"mesh":7,
			"name":"Cube.016"
		},
		{
			"mesh":8,
			"name":"Platform"
		},
		{
			"mesh":9,
			"name":"Cylinder.008",
			"rotation":[
				0.4975614547729492,
				0.4998188614845276,
				0.5001692771911621,
				0.5024386048316956
			]
		},
		{
			"mesh":10,
			"name":"Cylinder.009",
			"rotation":[
				0.4975614547729492,
				0.4998188614845276,
				0.5001692771911621,
				0.5024386048316956
			]
		},
		{
			"mesh":11,
			"name":"Cylinder.010",
			"rotation":[
				0.4975614547729492,
				0.4998188614845276,
				0.5001692771911621,
				0.5024386048316956
			]
		},
		{
			"mesh":12,
			"name":"Cylinder.011",
			"rotation":[
				0.4975614547729492,
				0.4998188614845276,
				0.5001692771911621,
				0.5024386048316956
			]
		},
		{
			"mesh":13,
			"name":"Light.002"
		},
		{
			"mesh":14,
			"name":"Light.003"
		}
	],
	"materials":[
		{
			"doubleSided":true,
			"name":"Wood",
			"pbrMetallicRoughness":{
				"metallicFactor":0
			}
		},
		{
			"doubleSided":true,
			"name":"Body",
			"pbrMetallicRoughness":{
				"metallicFactor":0,
				"roughnessFactor":0.41363635659217834
			}
		},
		{
			"doubleSided":true,
			"name":"Wood",
			"pbrMetallicRoughness":{
				"metallicFactor":0
			}
		},
		{
			"doubleSided":true,
			"emissiveFactor":[
				1,
				0.8072249293327332,
				0.40706005692481995
			],
			"extensions":{
				"KHR_materials_emissive_strength":{
					"emissiveStrength":5
				}
			},
			"name":"Light",
			"pbrMetallicRoughness":{
				"baseColorFactor":[
					0,
					0,
					0,
					1
				]
			}
		}
	],
	"meshes":[
		{
			"name":"Cone.003",
			"primitives":[
				{
					"attributes":{
						"POSITION":0,
						"NORMAL":1,
						"TEXCOORD_0":2
					},
					"indices":3,
					"material":0
				}
			]
		},
		{
			"name":"Cone.004",
			"primitives":[
				{
					"attributes":{
						"POSITION":4,
						"NORMAL":5,
						"TEXCOORD_0":6
					},
					"indices":3,
					"material":0
				}
			]
		},
		{
			"name":"Cube.015",
			"primitives":[
				{
					"attributes":{
						"POSITION":7,
						"NORMAL":8,
						"TEXCOORD_0":9,
						"TANGENT":10
					},
					"indices":11,
					"material":1
				}
			]
		},
		{
			"name":"Cube.016",
			"primitives":[
				{
					"attributes":{
						"POSITION":12,
						"NORMAL":13,
						"TEXCOORD_0":14,
						"TANGENT":15
					},
					"indices":16,
					"material":2
				}
			]
		},
		{
			"name":"Cube.017",
			"primitives":[
				{
					"attributes":{
						"POSITION":17,
						"NORMAL":18,
						"TEXCOORD_0":19,
						"TANGENT":20
					},
					"indices":21,
					"material":2
				}
			]
		},
		{
			"name":"Cube.018",
			"primitives":[
				{
					"attributes":{
						"POSITION":22,
						"NORMAL":23,
						"TEXCOORD_0":24,
						"TANGENT":25
					},
					"indices":26,
					"material":1
				}
			]
		},
		{
			"name":"Cube.019",
			"primitives":[
				{
					"attributes":{
						"POSITION":27,
						"NORMAL":28,
						"TEXCOORD_0":29,
						"TANGENT":30
					},
					"indices":31,
					"material":2
				}
			]
		},
		{
			"name":"Cube.020",
			"primitives":[
				{
					"attributes":{
						"POSITION":32,
						"NORMAL":33,
						"TEXCOORD_0":34,
						"TANGENT":35
					},
					"indices":36,
					"material":2
				}
			]
		},
		{
			"name":"Cylinder.006",
			"primitives":[
				{
					"attributes":{
						"POSITION":37,
						"NORMAL":38,
						"TEXCOORD_0":39
					},
					"indices":40
				}
			]
		},
		{
			"name":"Cylinder.007",
			"primitives":[
				{
					"attributes":{
						"POSITION":41,
						"NORMAL":42,
						"TEXCOORD_0":43
					},
					"indices":44,
					"material":0
				}
			]
		},
		{
			"name":"Cylinder.009",
			"primitives":[
				{
					"attributes":{
						"POSITION":45,
						"NORMAL":46,
						"TEXCOORD_0":47
					},
					"indices":44,
					"material":0
				}
			]
		},
		{
			"name":"Cylinder.010",
			"primitives":[
				{
					"attributes":{
						"POSITION":48,
						"NORMAL":49,
						"TEXCOORD_0":50
					},
					"indices":44,
					"material":0
				}
			]
		},
		{
			"name":"Cylinder.011",
			"primitives":[
				{
					"attributes":{
						"POSITION":51,
						"NORMAL":52,
						"TEXCOORD_0":53
					},
					"indices":44,
					"material":0
				}
			]
		},
		{
			"name":"Cube.005",
			"primitives":[
				{
					"attributes":{
						"POSITION":54,
						"NORMAL":55,
						"TEXCOORD_0":56,
						"TANGENT":57
					},
					"indices":58,
					"material":3
				}
			]
		},
		{
			"name":"Cube.009",
			"primitives":[
				{
					"attributes":{
						"POSITION":59,
						"NORMAL":60,
						"TEXCOORD_0":61,
						"TANGENT":62
					},
					"indices":63,
					"material":3
				}
			]
		}
	],
	"accessors":[
		{
			"bufferView":0,
			"componentType":5126,
			"count":128,
			"max":[
				4.53040075302124,
				0.0057934848591685295,
				-3.4849817752838135
			],
			"min":[
				4.299457550048828,
				-0.2251499444246292,
				-3.7159252166748047
			],
			"type":"VEC3"
		},
		{
			"bufferView":1,
			"componentType":5126,
			"count":128,
			"type":"VEC3"
		},
		{
			"bufferView":2,
			"componentType":5126,
			"count":128,
			"type":"VEC2"
		},
		{
			"bufferView":3,
			"componentType":5123,
			"count":186,
			"type":"SCALAR"
		},
		{
			"bufferView":4,
			"componentType":5126,
			"count":128,
			"max":[
				5.1810526847839355,
				-0.10817500203847885,
				-2.74701189994812
			],
			"min":[
				4.950109481811523,
				-0.33911842107772827,
				-2.9779553413391113
			],
			"type":"VEC3"
		},
		{
			"bufferView":5,
			"componentType":5126,
			"count":128,
			"type":"VEC3"
		},
		{
			"bufferView":6,
			"componentType":5126,
			"count":128,
			"type":"VEC2"
		},
		{
			"bufferView":7,
			"componentType":5126,
			"count":73728,
			"max":[
				0.9386680126190186,
				6.289033889770508,
				1.0061894655227661
			],
			"min":[
				-0.8737857341766357,
				3.8816287517547607,
				-0.9158719778060913
			],
			"type":"VEC3"
		},
		{
			"bufferView":8,
			"componentType":5126,
			"count":73728,
			"type":"VEC3"
		},
		{
			"bufferView":9,
			"componentType":5126,
			"count":73728,
			"type":"VEC2"
		},
		{
			"bufferView":10,
			"componentType":5126,
			"count":73728,
			"type":"VEC4"
		},
		{
			"bufferView":11,
			"componentType":5125,
			"count":110592,
			"type":"SCALAR"
		},
		{
			"bufferView":12,
			"componentType":5126,
			"count":32754,
			"max":[
				-0.26005885004997253,
				4.327467441558838,
				1.1588555574417114
			],
			"min":[
				-0.5096898674964905,
				4.0002970695495605,
				1.0763592720031738
			],
			"type":"VEC3"
		},
		{
			"bufferView":13,
			"componentType":5126,
			"count":32754,
			"type":"VEC3"
		},
		{
			"bufferView":14,
			"componentType":5126,
			"count":32754,
			"type":"VEC2"
		},
		{
			"bufferView":15,
			"componentType":5126,
			"count":32754,
			"type":"VEC4"
		},
		{
			"bufferView":16,
			"componentType":5123,
			"count":49152,
			"type":"SCALAR"
		},
		{
			"bufferView":17,
			"componentType":5126,
			"count":32752,
			"max":[
				0.5399412512779236,
				4.327467441558838,
				1.1588555574417114
			],
			"min":[
				0.29031017422676086,
				4.0002970695495605,
				1.0763592720031738
			],
			"type":"VEC3"
		},
		{
			"bufferView":18,
			"componentType":5126,
			"count":32752,
			"type":"VEC3"
		},
		{
			"bufferView":19,
			"componentType":5126,
			"count":32752,
			"type":"VEC2"
		},
		{
			"bufferView":20,
			"componentType":5126,
			"count":32752,
			"type":"VEC4"
		},
		{
			"bufferView":21,
			"componentType":5123,
			"count":49152,
			"type":"SCALAR"
		},
		{
			"bufferView":22,
			"componentType":5126,
			"count":73728,
			"max":[
				2.5137174129486084,
				6.264545917510986,
				0.8976320028305054
			],
			"min":[
				0.6746373176574707,
				3.8495891094207764,
				-1.0223573446273804
			],
			"type":"VEC3"
		},
		{
			"bufferView":23,
			"componentType":5126,
			"count":73728,
			"type":"VEC3"
		},
		{
			"bufferView":24,
			"componentType":5126,
			"count":73728,
			"type":"VEC2"
		},
		{
			"bufferView":25,
			"componentType":5126,
			"count":73728,
			"type":"VEC4"
		},
		{
			"bufferView":26,
			"componentType":5125,
			"count":110592,
			"type":"SCALAR"
		},
		{
			"bufferView":27,
			"componentType":5126,
			"count":32750,
			"max":[
				1.3880820274353027,
				4.299869060516357,
				1.0397835969924927
			],
			"min":[
				1.1384509801864624,
				3.9726998805999756,
				0.9572870135307312
			],
			"type":"VEC3"
		},
		{
			"bufferView":28,
			"componentType":5126,
			"count":32750,
			"type":"VEC3"
		},
		{
			"bufferView":29,
			"componentType":5126,
			"count":32750,
			"type":"VEC2"
		},
		{
			"bufferView":30,
			"componentType":5126,
			"count":32750,
			"type":"VEC4"
		},
		{
			"bufferView":31,
			"componentType":5123,
			"count":49152,
			"type":"SCALAR"
		},
		{
			"bufferView":32,
			"componentType":5126,
			"count":32768,
			"max":[
				2.1880040168762207,
				4.299869060516357,
				1.0397827625274658
			],
			"min":[
				1.9385632276535034,
				3.9726998805999756,
				0.9572861194610596
			],
			"type":"VEC3"
		},
		{
			"bufferView":33,
			"componentType":5126,
			"count":32768,
			"type":"VEC3"
		},
		{
			"bufferView":34,
			"componentType":5126,
			"count":32768,
			"type":"VEC2"
		},
		{
			"bufferView":35,
			"componentType":5126,
			"count":32768,
			"type":"VEC4"
		},
		{
			"bufferView":36,
			"componentType":5123,
			"count":49152,
			"type":"SCALAR"
		},
		{
			"bufferView":37,
			"componentType":5126,
			"count":300,
			"max":[
				2.804076910018921,
				3.9715137481689453,
				1.8549652099609375
			],
			"min":[
				-1.0325956344604492,
				0.12725552916526794,
				-1.9892932176589966
			],
			"type":"VEC3"
		},
		{
			"bufferView":38,
			"componentType":5126,
			"count":300,
			"type":"VEC3"
		},
		{
			"bufferView":39,
			"componentType":5126,
			"count":300,
			"type":"VEC2"
		},
		{
			"bufferView":40,
			"componentType":5123,
			"count":588,
			"type":"SCALAR"
		},
		{
			"bufferView":41,
			"componentType":5126,
			"count":320,
			"max":[
				4.0968194007873535,
				1.1327250003814697,
				-0.3535251021385193
			],
			"min":[
				4.005577087402344,
				0.7026561498641968,
				-0.4365098178386688
			],
			"type":"VEC3"
		},
		{
			"bufferView":42,
			"componentType":5126,
			"count":320,
			"type":"VEC3"
		},
		{
			"bufferView":43,
			"componentType":5126,
			"count":320,
			"type":"VEC2"
		},
		{
			"bufferView":44,
			"componentType":5123,
			"count":564,
			"type":"SCALAR"
		},
		{
			"bufferView":45,
			"componentType":5126,
			"count":320,
			"max":[
				4.096837997436523,
				1.1285430192947388,
				0.44646406173706055
			],
			"min":[
				4.005596160888672,
				0.6984742283821106,
				0.3634793162345886
			],
			"type":"VEC3"
		},
		{
			"bufferView":46,
			"componentType":5126,
			"count":320,
			"type":"VEC3"
		},
		{
			"bufferView":47,
			"componentType":5126,
			"count":320,
			"type":"VEC2"
		},
		{
			"bufferView":48,
			"componentType":5126,
			"count":320,
			"max":[
				4.06980037689209,
				1.0049153566360474,
				1.2939707040786743
			],
			"min":[
				3.97855806350708,
				0.5748465061187744,
				1.2109858989715576
			],
			"type":"VEC3"
		},
		{
			"bufferView":49,
			"componentType":5126,
			"count":320,
			"type":"VEC3"
		},
		{
			"bufferView":50,
			"componentType":5126,
			"count":320,
			"type":"VEC2"
		},
		{
			"bufferView":51,
			"componentType":5126,
			"count":320,
			"max":[
				4.069819450378418,
				1.0007333755493164,
				2.0939598083496094
			],
			"min":[
				3.978577136993408,
				0.5706644654273987,
				2.0109751224517822
			],
			"type":"VEC3"
		},
		{
			"bufferView":52,
			"componentType":5126,
			"count":320,
			"type":"VEC3"
		},
		{
			"bufferView":53,
			"componentType":5126,
			"count":320,
			"type":"VEC2"
		},
		{
			"bufferView":54,
			"componentType":5126,
			"count":73728,
			"max":[
				2.367794990539551,
				5.9978556632995605,
				0.7224751114845276
			],
			"min":[
				0.8009855151176453,
				3.9840340614318848,
				-0.8736757636070251
			],
			"type":"VEC3"
		},
		{
			"bufferView":55,
			"componentType":5126,
			"count":73728,
			"type":"VEC3"
		},
		{
			"bufferView":56,
			"componentType":5126,
			"count":73728,
			"type":"VEC2"
		},
		{
			"bufferView":57,
			"componentType":5126,
			"count":73728,
			"type":"VEC4"
		},
		{
			"bufferView":58,
			"componentType":5125,
			"count":110592,
			"type":"SCALAR"
		},
		{
			"bufferView":59,
			"componentType":5126,
			"count":73728,
			"max":[
				0.8045356273651123,
				6.059081554412842,
				0.8592303991317749
			],
			"min":[
				-0.7488076090812683,
				3.994948387145996,
				-0.7880507707595825
			],
			"type":"VEC3"
		},
		{
			"bufferView":60,
			"componentType":5126,
			"count":73728,
			"type":"VEC3"
		},
		{
			"bufferView":61,
			"componentType":5126,
			"count":73728,
			"type":"VEC2"
		},
		{
			"bufferView":62,
			"componentType":5126,
			"count":73728,
			"type":"VEC4"
		},
		{
			"bufferView":63,
			"componentType":5125,
			"count":110592,
			"type":"SCALAR"
		}
	],
	"bufferViews":[
		{
			"buffer":0,
			"byteLength":1536,
			"byteOffset":0,
			"target":34962
		},
		{
			"buffer":0,
			"byteLength":1536,
			"byteOffset":1536,
			"target":34962
		},
		{
			"buffer":0,
			"byteLength":1024,
			"byteOffset":3072,
			"target":34962
		},
		{
			"buffer":0,
			"byteLength":372,
			"byteOffset":4096,
			"target":34963
		},
		{
			"buffer":0,
			"byteLength":1536,
			"byteOffset":4468,
			"target":34962
		},
		{
			"buffer":0,
			"byteLength":1536,
			"byteOffset":6004,
			"target":34962
		},
		{
			"buffer":0,
			"byteLength":1024,
			"byteOffset":7540,
			"target":34962
		},
		{
			"buffer":0,
			"byteLength":884736,
			"byteOffset":8564,
			"target":34962
		},
		{
			"buffer":0,
			"byteLength":884736,
			"byteOffset":893300,
			"target":34962
		},
		{
			"buffer":0,
			"byteLength":589824,
			"byteOffset":1778036,
			"target":34962
		},
		{
			"buffer":0,
			"byteLength":1179648,
			"byteOffset":2367860,
			"target":34962
		},
		{
			"buffer":0,
			"byteLength":442368,
			"byteOffset":3547508,
			"target":34963
		},
		{
			"buffer":0,
			"byteLength":393048,
			"byteOffset":3989876,
			"target":34962
		},
		{
			"buffer":0,
			"byteLength":393048,
			"byteOffset":4382924,
			"target":34962
		},
		{
			"buffer":0,
			"byteLength":262032,
			"byteOffset":4775972,
			"target":34962
		},
		{
			"buffer":0,
			"byteLength":524064,
			"byteOffset":5038004,
			"target":34962
		},
		{
			"buffer":0,
			"byteLength":98304,
			"byteOffset":5562068,
			"target":34963
		},
		{
			"buffer":0,
			"byteLength":393024,
			"byteOffset":5660372,
			"target":34962
		},
		{
			"buffer":0,
			"byteLength":393024,
			"byteOffset":6053396,
			"target":34962
		},
		{
			"buffer":0,
			"byteLength":262016,
			"byteOffset":6446420,
			"target":34962
		},
		{
			"buffer":0,
			"byteLength":524032,
			"byteOffset":6708436,
			"target":34962
		},
		{
			"buffer":0,
			"byteLength":98304,
			"byteOffset":7232468,
			"target":34963
		},
		{
			"buffer":0,
			"byteLength":884736,
			"byteOffset":7330772,
			"target":34962
		},
		{
			"buffer":0,
			"byteLength":884736,
			"byteOffset":8215508,
			"target":34962
		},
		{
			"buffer":0,
			"byteLength":589824,
			"byteOffset":9100244,
			"target":34962
		},
		{
			"buffer":0,
			"byteLength":1179648,
			"byteOffset":9690068,
			"target":34962
		},
		{
			"buffer":0,
			"byteLength":442368,
			"byteOffset":10869716,
			"target":34963
		},
		{
			"buffer":0,
			"byteLength":393000,
			"byteOffset":11312084,
			"target":34962
		},
		{
			"buffer":0,
			"byteLength":393000,
			"byteOffset":11705084,
			"target":34962
		},
		{
			"buffer":0,
			"byteLength":262000,
			"byteOffset":12098084,
			"target":34962
		},
		{
			"buffer":0,
			"byteLength":524000,
			"byteOffset":12360084,
			"target":34962
		},
		{
			"buffer":0,
			"byteLength":98304,
			"byteOffset":12884084,
			"target":34963
		},
		{
			"buffer":0,
			"byteLength":393216,
			"byteOffset":12982388,
			"target":34962
		},
		{
			"buffer":0,
			"byteLength":393216,
			"byteOffset":13375604,
			"target":34962
		},
		{
			"buffer":0,
			"byteLength":262144,
			"byteOffset":13768820,
			"target":34962
		},
		{
			"buffer":0,
			"byteLength":524288,
			"byteOffset":14030964,
			"target":34962
		},
		{
			"buffer":0,
			"byteLength":98304,
			"byteOffset":14555252,
			"target":34963
		},
		{
			"buffer":0,
			"byteLength":3600,
			"byteOffset":14653556,
			"target":34962
		},
		{
			"buffer":0,
			"byteLength":3600,
			"byteOffset":14657156,
			"target":34962
		},
		{
			"buffer":0,
			"byteLength":2400,
			"byteOffset":14660756,
			"target":34962
		},
		{
			"buffer":0,
			"byteLength":1176,
			"byteOffset":14663156,
			"target":34963
		},
		{
			"buffer":0,
			"byteLength":3840,
			"byteOffset":14664332,
			"target":34962
		},
		{
			"buffer":0,
			"byteLength":3840,
			"byteOffset":14668172,
			"target":34962
		},
		{
			"buffer":0,
			"byteLength":2560,
			"byteOffset":14672012,
			"target":34962
		},
		{
			"buffer":0,
			"byteLength":1128,
			"byteOffset":14674572,
			"target":34963
		},
		{
			"buffer":0,
			"byteLength":3840,
			"byteOffset":14675700,
			"target":34962
		},
		{
			"buffer":0,
			"byteLength":3840,
			"byteOffset":14679540,
			"target":34962
		},
		{
			"buffer":0,
			"byteLength":2560,
			"byteOffset":14683380,
			"target":34962
		},
		{
			"buffer":0,
			"byteLength":3840,
			"byteOffset":14685940,
			"target":34962
		},
		{
			"buffer":0,
			"byteLength":3840,
			"byteOffset":14689780,
			"target":34962
		},
		{
			"buffer":0,
			"byteLength":2560,
			"byteOffset":14693620,
			"target":34962
		},
		{
			"buffer":0,
			"byteLength":3840,
			"byteOffset":14696180,
			"target":34962
		},
		{
			"buffer":0,
			"byteLength":3840,
			"byteOffset":14700020,
			"target":34962
		},
		{
			"buffer":0,
			"byteLength":2560,
			"byteOffset":14703860,
			"target":34962
		},
		{
			"buffer":0,
			"byteLength":884736,
			"byteOffset":14706420,
			"target":34962
		},
		{
			"buffer":0,
			"byteLength":884736,
			"byteOffset":15591156,
			"target":34962
		},
		{
			"buffer":0,
			"byteLength":589824,
			"byteOffset":16475892,
			"target":34962
		},
		{
			"buffer":0,
			"byteLength":1179648,
			"byteOffset":17065716,
			"target":34962
		},
		{
			"buffer":0,
			"byteLength":442368,
			"byteOffset":18245364,
			"target":34963
		},
		{
			"buffer":0,
			"byteLength":884736,
			"byteOffset":18687732,
			"target":34962
		},
		{
			"buffer":0,
			"byteLength":884736,
			"byteOffset":19572468,
			"target":34962
		},
		{
			"buffer":0,
			"byteLength":589824,
			"byteOffset":20457204,
			"target":34962
		},
		{
			"buffer":0,
			"byteLength":1179648,
			"byteOffset":21047028,
			"target":34962
		},
		{
			"buffer":0,
			"byteLength":442368,
			"byteOffset":22226676,
			"target":34963
		}
	],
	"buffers":[
		{
			"byteLength":22669044,
			"uri":"bird3.bin"
		}
	]
}
