{
	"asset":{
		"generator":"Khronos glTF Blender I/O v4.0.44",
		"version":"2.0"
	},
	"extensionsUsed":[
		"KHR_materials_emissive_strength"
	],
	"scene":0,
	"scenes":[
		{
			"name":"Scene",
			"nodes":[
				0,
				1,
				2,
				3,
				4,
				5,
				6,
				7,
				8,
				9,
				10,
				11,
				12,
				13,
				14
			]
		}
	],
	"nodes":[
		{
			"mesh":0,
			"name":"Cylinder.006",
			"scale":[
				1.9221291542053223,
				1.9221291542053223,
				1.9221291542053223
			],
			"translation":[
				0.8857405185699463,
				2.049384593963623,
				-0.06716394424438477
			]
		},
		{
			"mesh":1,
			"name":"Cone.001",
			"rotation":[
				0.6859350800514221,
				0.2793642282485962,
				0.3046414256095886,
				0.5988675355911255
			],
			"scale":[
				0.11547169834375381,
				0.11547171324491501,
				0.11547169834375381
			],
			"translation":[
				1.1764423847198486,
				5.6825361251831055,
				0.47823095321655273
			]
		},
		{
			"mesh":2,
			"name":"Cube.008",
			"scale":[
				0.6291489601135254,
				0.5743066668510437,
				0.648650586605072
			],
			"translation":[
				1.6485644578933716,
				4.646695137023926,
				-0.1408471167087555
			]
		},
		{
			"mesh":3,
			"name":"Cube.007",
			"scale":[
				0.16232521831989288,
				0.17148947715759277,
				0.06376655399799347
			],
			"translation":[
				1.2485644817352295,
				4.1384053230285645,
				0.99853515625
			]
		},
		{
			"mesh":4,
			"name":"Cube.006",
			"scale":[
				0.16232521831989288,
				0.17148947715759277,
				0.06376655399799347
			],
			"translation":[
				2.0485644340515137,
				4.1384053230285645,
				0.99853515625
			]
		},
		{
			"mesh":5,
			"name":"Cylinder.003",
			"rotation":[
				0.4975614547729492,
				0.4998188614845276,
				0.5001692771911621,
				0.5024386048316956
			],
			"scale":[
				-0.03707754984498024,
				-0.11503680050373077,
				-0.040832240134477615
			],
			"translation":[
				1.2485644817352295,
				4.019622802734375,
				0.6782308220863342
			]
		},
		{
			"mesh":6,
			"name":"Cylinder.002",
			"rotation":[
				0.4975614547729492,
				0.4998188614845276,
				0.5001692771911621,
				0.5024386048316956
			],
			"scale":[
				-0.03707754984498024,
				-0.11503680050373077,
				-0.040832240134477615
			],
			"translation":[
				2.0485644340515137,
				4.019622802734375,
				0.6782308220863342
			]
		},
		{
			"mesh":7,
			"name":"Light.001",
			"scale":[
				0.5230324268341064,
				0.4774402379989624,
				0.5392447710037231
			],
			"translation":[
				1.6485644578933716,
				4.646695137023926,
				-0.1408471167087555
			]
		},
		{
			"mesh":8,
			"name":"Cone.002",
			"rotation":[
				0.6859350800514221,
				0.2793642282485962,
				0.3046414256095886,
				0.5988675355911255
			],
			"scale":[
				0.11547169834375381,
				0.11547171324491501,
				0.11547169834375381
			],
			"translation":[
				0.19486641883850098,
				5.662013053894043,
				0.6087063550949097
			]
		},
		{
			"mesh":9,
			"name":"Cube.012",
			"scale":[
				0.6291489601135254,
				0.5743066668510437,
				0.648650586605072
			],
			"translation":[
				0.0004238527617417276,
				4.674292087554932,
				-0.021775081753730774
			]
		},
		{
			"mesh":10,
			"name":"Cube.011",
			"scale":[
				0.16232521831989288,
				0.17148947715759277,
				0.06376655399799347
			],
			"translation":[
				-0.3995761573314667,
				4.1660027503967285,
				1.1176072359085083
			]
		},
		{
			"mesh":11,
			"name":"Cube.010",
			"scale":[
				0.16232521831989288,
				0.17148947715759277,
				0.06376655399799347
			],
			"translation":[
				0.40042388439178467,
				4.1660027503967285,
				1.1176072359085083
			]
		},
		{
			"mesh":12,
			"name":"Cylinder.005",
			"rotation":[
				0.4975614547729492,
				0.4998188614845276,
				0.5001692771911621,
				0.5024386048316956
			],
			"scale":[
				-0.03707754984498024,
				-0.11503680050373077,
				-0.040832240134477615
			],
			"translation":[
				-0.3995761573314667,
				4.047219753265381,
				0.7973028421401978
			]
		},
		{
			"mesh":13,
			"name":"Cylinder.004",
			"rotation":[
				0.4975614547729492,
				0.4998188614845276,
				0.5001692771911621,
				0.5024386048316956
			],
			"scale":[
				-0.03707754984498024,
				-0.11503680050373077,
				-0.040832240134477615
			],
			"translation":[
				0.40042388439178467,
				4.047219753265381,
				0.7973028421401978
			]
		},
		{
			"mesh":14,
			"name":"Light",
			"scale":[
				0.539205014705658,
				0.49220308661460876,
				0.5559186935424805
			],
			"translation":[
				0.0004238527617417276,
				4.674292087554932,
				-0.021775081753730774
			]
		}
	],
	"materials":[
		{
			"doubleSided":true,
			"name":"Wood.001",
			"pbrMetallicRoughness":{
				"metallicFactor":0
			}
		},
		{
			"doubleSided":true,
			"name":"Material.005",
			"pbrMetallicRoughness":{
				"metallicFactor":0,
				"roughnessFactor":0.41363635659217834
			}
		},
		{
			"doubleSided":true,
			"name":"wood.001",
			"pbrMetallicRoughness":{
				"metallicFactor":0
			}
		},
		{
			"doubleSided":true,
			"name":"wood.001",
			"pbrMetallicRoughness":{
				"metallicFactor":0
			}
		},
		{
			"doubleSided":true,
			"emissiveFactor":[
				1,
				0.8072249293327332,
				0.40706005692481995
			],
			"extensions":{
				"KHR_materials_emissive_strength":{
					"emissiveStrength":5
				}
			},
			"name":"Light",
			"pbrMetallicRoughness":{
				"baseColorFactor":[
					0,
					0,
					0,
					1
				]
			}
		},
		{
			"doubleSided":true,
			"name":"Wood.002",
			"pbrMetallicRoughness":{
				"metallicFactor":0
			}
		},
		{
			"doubleSided":true,
			"name":"wood.002",
			"pbrMetallicRoughness":{
				"metallicFactor":0
			}
		},
		{
			"doubleSided":true,
			"name":"wood.002",
			"pbrMetallicRoughness":{
				"metallicFactor":0
			}
		}
	],
	"meshes":[
		{
			"name":"Cylinder.008",
			"primitives":[
				{
					"attributes":{
						"POSITION":0,
						"NORMAL":1,
						"TEXCOORD_0":2
					},
					"indices":3
				}
			]
		},
		{
			"name":"Cone.001",
			"primitives":[
				{
					"attributes":{
						"POSITION":4,
						"NORMAL":5,
						"TEXCOORD_0":6
					},
					"indices":7,
					"material":0
				}
			]
		},
		{
			"name":"Cube.008",
			"primitives":[
				{
					"attributes":{
						"POSITION":8,
						"NORMAL":9,
						"TEXCOORD_0":10,
						"TANGENT":11
					},
					"indices":12,
					"material":1
				}
			]
		},
		{
			"name":"Cube.007",
			"primitives":[
				{
					"attributes":{
						"POSITION":13,
						"NORMAL":14,
						"TEXCOORD_0":15,
						"TANGENT":16
					},
					"indices":17,
					"material":2
				}
			]
		},
		{
			"name":"Cube.006",
			"primitives":[
				{
					"attributes":{
						"POSITION":18,
						"NORMAL":19,
						"TEXCOORD_0":20,
						"TANGENT":21
					},
					"indices":22,
					"material":2
				}
			]
		},
		{
			"name":"Cylinder.003",
			"primitives":[
				{
					"attributes":{
						"POSITION":23,
						"NORMAL":24,
						"TEXCOORD_0":25
					},
					"indices":26,
					"material":0
				}
			]
		},
		{
			"name":"Cylinder.002",
			"primitives":[
				{
					"attributes":{
						"POSITION":27,
						"NORMAL":28,
						"TEXCOORD_0":29
					},
					"indices":26,
					"material":3
				}
			]
		},
		{
			"name":"Cube.014",
			"primitives":[
				{
					"attributes":{
						"POSITION":30,
						"NORMAL":31,
						"TEXCOORD_0":32,
						"TANGENT":33
					},
					"indices":34,
					"material":4
				}
			]
		},
		{
			"name":"Cone.002",
			"primitives":[
				{
					"attributes":{
						"POSITION":35,
						"NORMAL":36,
						"TEXCOORD_0":37
					},
					"indices":7,
					"material":5
				}
			]
		},
		{
			"name":"Cube.012",
			"primitives":[
				{
					"attributes":{
						"POSITION":38,
						"NORMAL":39,
						"TEXCOORD_0":40,
						"TANGENT":41
					},
					"indices":42,
					"material":1
				}
			]
		},
		{
			"name":"Cube.011",
			"primitives":[
				{
					"attributes":{
						"POSITION":43,
						"NORMAL":44,
						"TEXCOORD_0":45,
						"TANGENT":46
					},
					"indices":17,
					"material":6
				}
			]
		},
		{
			"name":"Cube.010",
			"primitives":[
				{
					"attributes":{
						"POSITION":47,
						"NORMAL":48,
						"TEXCOORD_0":49,
						"TANGENT":50
					},
					"indices":17,
					"material":6
				}
			]
		},
		{
			"name":"Cylinder.005",
			"primitives":[
				{
					"attributes":{
						"POSITION":51,
						"NORMAL":52,
						"TEXCOORD_0":53
					},
					"indices":26,
					"material":5
				}
			]
		},
		{
			"name":"Cylinder.004",
			"primitives":[
				{
					"attributes":{
						"POSITION":54,
						"NORMAL":55,
						"TEXCOORD_0":56
					},
					"indices":26,
					"material":7
				}
			]
		},
		{
			"name":"Cube.013",
			"primitives":[
				{
					"attributes":{
						"POSITION":57,
						"NORMAL":58,
						"TEXCOORD_0":59,
						"TANGENT":60
					},
					"indices":61,
					"material":4
				}
			]
		}
	],
	"accessors":[
		{
			"bufferView":0,
			"componentType":5126,
			"count":300,
			"max":[
				0.9980267286300659,
				1,
				1
			],
			"min":[
				-0.9980267286300659,
				-1,
				-1
			],
			"type":"VEC3"
		},
		{
			"bufferView":1,
			"componentType":5126,
			"count":300,
			"type":"VEC3"
		},
		{
			"bufferView":2,
			"componentType":5126,
			"count":300,
			"type":"VEC2"
		},
		{
			"bufferView":3,
			"componentType":5123,
			"count":588,
			"type":"SCALAR"
		},
		{
			"bufferView":4,
			"componentType":5126,
			"count":128,
			"max":[
				1,
				1,
				1
			],
			"min":[
				-1,
				-1,
				-1
			],
			"type":"VEC3"
		},
		{
			"bufferView":5,
			"componentType":5126,
			"count":128,
			"type":"VEC3"
		},
		{
			"bufferView":6,
			"componentType":5126,
			"count":128,
			"type":"VEC2"
		},
		{
			"bufferView":7,
			"componentType":5123,
			"count":186,
			"type":"SCALAR"
		},
		{
			"bufferView":8,
			"componentType":5126,
			"count":73728,
			"max":[
				1.3751158714294434,
				2.8170485496520996,
				1.60098397731781
			],
			"min":[
				-1.5480074882507324,
				-1.3879464864730835,
				-1.3589907884597778
			],
			"type":"VEC3"
		},
		{
			"bufferView":9,
			"componentType":5126,
			"count":73728,
			"type":"VEC3"
		},
		{
			"bufferView":10,
			"componentType":5126,
			"count":73728,
			"type":"VEC2"
		},
		{
			"bufferView":11,
			"componentType":5126,
			"count":73728,
			"type":"VEC4"
		},
		{
			"bufferView":12,
			"componentType":5125,
			"count":110592,
			"type":"SCALAR"
		},
		{
			"bufferView":13,
			"componentType":5126,
			"count":32288,
			"max":[
				0.8594930768013,
				0.9415368437767029,
				0.6468644142150879
			],
			"min":[
				-0.6783525943756104,
				-0.9662737250328064,
				-0.6468643546104431
			],
			"type":"VEC3"
		},
		{
			"bufferView":14,
			"componentType":5126,
			"count":32288,
			"type":"VEC3"
		},
		{
			"bufferView":15,
			"componentType":5126,
			"count":32288,
			"type":"VEC2"
		},
		{
			"bufferView":16,
			"componentType":5126,
			"count":32288,
			"type":"VEC4"
		},
		{
			"bufferView":17,
			"componentType":5123,
			"count":49152,
			"type":"SCALAR"
		},
		{
			"bufferView":18,
			"componentType":5126,
			"count":32768,
			"max":[
				0.8590120077133179,
				0.9415368437767029,
				0.6468508839607239
			],
			"min":[
				-0.6776630282402039,
				-0.9662737250328064,
				-0.6468780636787415
			],
			"type":"VEC3"
		},
		{
			"bufferView":19,
			"componentType":5126,
			"count":32768,
			"type":"VEC3"
		},
		{
			"bufferView":20,
			"componentType":5126,
			"count":32768,
			"type":"VEC2"
		},
		{
			"bufferView":21,
			"componentType":5126,
			"count":32768,
			"type":"VEC4"
		},
		{
			"bufferView":22,
			"componentType":5123,
			"count":49152,
			"type":"SCALAR"
		},
		{
			"bufferView":23,
			"componentType":5126,
			"count":320,
			"max":[
				1.0244170427322388,
				1,
				1.006729245185852
			],
			"min":[
				-1.4364314079284668,
				-2.738532543182373,
				-1.0256047248840332
			],
			"type":"VEC3"
		},
		{
			"bufferView":24,
			"componentType":5126,
			"count":320,
			"type":"VEC3"
		},
		{
			"bufferView":25,
			"componentType":5126,
			"count":320,
			"type":"VEC2"
		},
		{
			"bufferView":26,
			"componentType":5123,
			"count":564,
			"type":"SCALAR"
		},
		{
			"bufferView":27,
			"componentType":5126,
			"count":320,
			"max":[
				1.0244170427322388,
				1,
				1.006729245185852
			],
			"min":[
				-1.4364314079284668,
				-2.738532543182373,
				-1.0256047248840332
			],
			"type":"VEC3"
		},
		{
			"bufferView":28,
			"componentType":5126,
			"count":320,
			"type":"VEC3"
		},
		{
			"bufferView":29,
			"componentType":5126,
			"count":320,
			"type":"VEC2"
		},
		{
			"bufferView":30,
			"componentType":5126,
			"count":73728,
			"max":[
				1.3751158714294434,
				2.8300094604492188,
				1.60098397731781
			],
			"min":[
				-1.6205098628997803,
				-1.3879464864730835,
				-1.3589907884597778
			],
			"type":"VEC3"
		},
		{
			"bufferView":31,
			"componentType":5126,
			"count":73728,
			"type":"VEC3"
		},
		{
			"bufferView":32,
			"componentType":5126,
			"count":73728,
			"type":"VEC2"
		},
		{
			"bufferView":33,
			"componentType":5126,
			"count":73728,
			"type":"VEC4"
		},
		{
			"bufferView":34,
			"componentType":5125,
			"count":110592,
			"type":"SCALAR"
		},
		{
			"bufferView":35,
			"componentType":5126,
			"count":128,
			"max":[
				1,
				1,
				1
			],
			"min":[
				-1,
				-1,
				-1
			],
			"type":"VEC3"
		},
		{
			"bufferView":36,
			"componentType":5126,
			"count":128,
			"type":"VEC3"
		},
		{
			"bufferView":37,
			"componentType":5126,
			"count":128,
			"type":"VEC2"
		},
		{
			"bufferView":38,
			"componentType":5126,
			"count":73728,
			"max":[
				1.4912911653518677,
				2.811636209487915,
				1.5847738981246948
			],
			"min":[
				-1.3895111083984375,
				-1.3802109956741333,
				-1.3783951997756958
			],
			"type":"VEC3"
		},
		{
			"bufferView":39,
			"componentType":5126,
			"count":73728,
			"type":"VEC3"
		},
		{
			"bufferView":40,
			"componentType":5126,
			"count":73728,
			"type":"VEC2"
		},
		{
			"bufferView":41,
			"componentType":5126,
			"count":73728,
			"type":"VEC4"
		},
		{
			"bufferView":42,
			"componentType":5125,
			"count":110592,
			"type":"SCALAR"
		},
		{
			"bufferView":43,
			"componentType":5126,
			"count":32288,
			"max":[
				0.8594930768013,
				0.9415368437767029,
				0.6468644142150879
			],
			"min":[
				-0.6783525943756104,
				-0.9662737250328064,
				-0.6468643546104431
			],
			"type":"VEC3"
		},
		{
			"bufferView":44,
			"componentType":5126,
			"count":32288,
			"type":"VEC3"
		},
		{
			"bufferView":45,
			"componentType":5126,
			"count":32288,
			"type":"VEC2"
		},
		{
			"bufferView":46,
			"componentType":5126,
			"count":32288,
			"type":"VEC4"
		},
		{
			"bufferView":47,
			"componentType":5126,
			"count":32288,
			"max":[
				0.8594930768013,
				0.9415368437767029,
				0.6468644142150879
			],
			"min":[
				-0.6783525943756104,
				-0.9662737250328064,
				-0.6468643546104431
			],
			"type":"VEC3"
		},
		{
			"bufferView":48,
			"componentType":5126,
			"count":32288,
			"type":"VEC3"
		},
		{
			"bufferView":49,
			"componentType":5126,
			"count":32288,
			"type":"VEC2"
		},
		{
			"bufferView":50,
			"componentType":5126,
			"count":32288,
			"type":"VEC4"
		},
		{
			"bufferView":51,
			"componentType":5126,
			"count":320,
			"max":[
				1.0244170427322388,
				1,
				1.006729245185852
			],
			"min":[
				-1.4364314079284668,
				-2.738532543182373,
				-1.0256047248840332
			],
			"type":"VEC3"
		},
		{
			"bufferView":52,
			"componentType":5126,
			"count":320,
			"type":"VEC3"
		},
		{
			"bufferView":53,
			"componentType":5126,
			"count":320,
			"type":"VEC2"
		},
		{
			"bufferView":54,
			"componentType":5126,
			"count":320,
			"max":[
				1.0244170427322388,
				1,
				1.006729245185852
			],
			"min":[
				-1.4364314079284668,
				-2.738532543182373,
				-1.0256047248840332
			],
			"type":"VEC3"
		},
		{
			"bufferView":55,
			"componentType":5126,
			"count":320,
			"type":"VEC3"
		},
		{
			"bufferView":56,
			"componentType":5126,
			"count":320,
			"type":"VEC2"
		},
		{
			"bufferView":57,
			"componentType":5126,
			"count":73728,
			"max":[
				1.4912911653518677,
				2.813450336456299,
				1.5847738981246948
			],
			"min":[
				-1.3895111083984375,
				-1.3802109956741333,
				-1.3783951997756958
			],
			"type":"VEC3"
		},
		{
			"bufferView":58,
			"componentType":5126,
			"count":73728,
			"type":"VEC3"
		},
		{
			"bufferView":59,
			"componentType":5126,
			"count":73728,
			"type":"VEC2"
		},
		{
			"bufferView":60,
			"componentType":5126,
			"count":73728,
			"type":"VEC4"
		},
		{
			"bufferView":61,
			"componentType":5125,
			"count":110592,
			"type":"SCALAR"
		}
	],
	"bufferViews":[
		{
			"buffer":0,
			"byteLength":3600,
			"byteOffset":0,
			"target":34962
		},
		{
			"buffer":0,
			"byteLength":3600,
			"byteOffset":3600,
			"target":34962
		},
		{
			"buffer":0,
			"byteLength":2400,
			"byteOffset":7200,
			"target":34962
		},
		{
			"buffer":0,
			"byteLength":1176,
			"byteOffset":9600,
			"target":34963
		},
		{
			"buffer":0,
			"byteLength":1536,
			"byteOffset":10776,
			"target":34962
		},
		{
			"buffer":0,
			"byteLength":1536,
			"byteOffset":12312,
			"target":34962
		},
		{
			"buffer":0,
			"byteLength":1024,
			"byteOffset":13848,
			"target":34962
		},
		{
			"buffer":0,
			"byteLength":372,
			"byteOffset":14872,
			"target":34963
		},
		{
			"buffer":0,
			"byteLength":884736,
			"byteOffset":15244,
			"target":34962
		},
		{
			"buffer":0,
			"byteLength":884736,
			"byteOffset":899980,
			"target":34962
		},
		{
			"buffer":0,
			"byteLength":589824,
			"byteOffset":1784716,
			"target":34962
		},
		{
			"buffer":0,
			"byteLength":1179648,
			"byteOffset":2374540,
			"target":34962
		},
		{
			"buffer":0,
			"byteLength":442368,
			"byteOffset":3554188,
			"target":34963
		},
		{
			"buffer":0,
			"byteLength":387456,
			"byteOffset":3996556,
			"target":34962
		},
		{
			"buffer":0,
			"byteLength":387456,
			"byteOffset":4384012,
			"target":34962
		},
		{
			"buffer":0,
			"byteLength":258304,
			"byteOffset":4771468,
			"target":34962
		},
		{
			"buffer":0,
			"byteLength":516608,
			"byteOffset":5029772,
			"target":34962
		},
		{
			"buffer":0,
			"byteLength":98304,
			"byteOffset":5546380,
			"target":34963
		},
		{
			"buffer":0,
			"byteLength":393216,
			"byteOffset":5644684,
			"target":34962
		},
		{
			"buffer":0,
			"byteLength":393216,
			"byteOffset":6037900,
			"target":34962
		},
		{
			"buffer":0,
			"byteLength":262144,
			"byteOffset":6431116,
			"target":34962
		},
		{
			"buffer":0,
			"byteLength":524288,
			"byteOffset":6693260,
			"target":34962
		},
		{
			"buffer":0,
			"byteLength":98304,
			"byteOffset":7217548,
			"target":34963
		},
		{
			"buffer":0,
			"byteLength":3840,
			"byteOffset":7315852,
			"target":34962
		},
		{
			"buffer":0,
			"byteLength":3840,
			"byteOffset":7319692,
			"target":34962
		},
		{
			"buffer":0,
			"byteLength":2560,
			"byteOffset":7323532,
			"target":34962
		},
		{
			"buffer":0,
			"byteLength":1128,
			"byteOffset":7326092,
			"target":34963
		},
		{
			"buffer":0,
			"byteLength":3840,
			"byteOffset":7327220,
			"target":34962
		},
		{
			"buffer":0,
			"byteLength":3840,
			"byteOffset":7331060,
			"target":34962
		},
		{
			"buffer":0,
			"byteLength":2560,
			"byteOffset":7334900,
			"target":34962
		},
		{
			"buffer":0,
			"byteLength":884736,
			"byteOffset":7337460,
			"target":34962
		},
		{
			"buffer":0,
			"byteLength":884736,
			"byteOffset":8222196,
			"target":34962
		},
		{
			"buffer":0,
			"byteLength":589824,
			"byteOffset":9106932,
			"target":34962
		},
		{
			"buffer":0,
			"byteLength":1179648,
			"byteOffset":9696756,
			"target":34962
		},
		{
			"buffer":0,
			"byteLength":442368,
			"byteOffset":10876404,
			"target":34963
		},
		{
			"buffer":0,
			"byteLength":1536,
			"byteOffset":11318772,
			"target":34962
		},
		{
			"buffer":0,
			"byteLength":1536,
			"byteOffset":11320308,
			"target":34962
		},
		{
			"buffer":0,
			"byteLength":1024,
			"byteOffset":11321844,
			"target":34962
		},
		{
			"buffer":0,
			"byteLength":884736,
			"byteOffset":11322868,
			"target":34962
		},
		{
			"buffer":0,
			"byteLength":884736,
			"byteOffset":12207604,
			"target":34962
		},
		{
			"buffer":0,
			"byteLength":589824,
			"byteOffset":13092340,
			"target":34962
		},
		{
			"buffer":0,
			"byteLength":1179648,
			"byteOffset":13682164,
			"target":34962
		},
		{
			"buffer":0,
			"byteLength":442368,
			"byteOffset":14861812,
			"target":34963
		},
		{
			"buffer":0,
			"byteLength":387456,
			"byteOffset":15304180,
			"target":34962
		},
		{
			"buffer":0,
			"byteLength":387456,
			"byteOffset":15691636,
			"target":34962
		},
		{
			"buffer":0,
			"byteLength":258304,
			"byteOffset":16079092,
			"target":34962
		},
		{
			"buffer":0,
			"byteLength":516608,
			"byteOffset":16337396,
			"target":34962
		},
		{
			"buffer":0,
			"byteLength":387456,
			"byteOffset":16854004,
			"target":34962
		},
		{
			"buffer":0,
			"byteLength":387456,
			"byteOffset":17241460,
			"target":34962
		},
		{
			"buffer":0,
			"byteLength":258304,
			"byteOffset":17628916,
			"target":34962
		},
		{
			"buffer":0,
			"byteLength":516608,
			"byteOffset":17887220,
			"target":34962
		},
		{
			"buffer":0,
			"byteLength":3840,
			"byteOffset":18403828,
			"target":34962
		},
		{
			"buffer":0,
			"byteLength":3840,
			"byteOffset":18407668,
			"target":34962
		},
		{
			"buffer":0,
			"byteLength":2560,
			"byteOffset":18411508,
			"target":34962
		},
		{
			"buffer":0,
			"byteLength":3840,
			"byteOffset":18414068,
			"target":34962
		},
		{
			"buffer":0,
			"byteLength":3840,
			"byteOffset":18417908,
			"target":34962
		},
		{
			"buffer":0,
			"byteLength":2560,
			"byteOffset":18421748,
			"target":34962
		},
		{
			"buffer":0,
			"byteLength":884736,
			"byteOffset":18424308,
			"target":34962
		},
		{
			"buffer":0,
			"byteLength":884736,
			"byteOffset":19309044,
			"target":34962
		},
		{
			"buffer":0,
			"byteLength":589824,
			"byteOffset":20193780,
			"target":34962
		},
		{
			"buffer":0,
			"byteLength":1179648,
			"byteOffset":20783604,
			"target":34962
		},
		{
			"buffer":0,
			"byteLength":442368,
			"byteOffset":21963252,
			"target":34963
		}
	],
	"buffers":[
		{
			"byteLength":22405620,
			"uri":"bird.bin"
		}
	]
}
